<svg id="Layer_1" data-name="Layer 1" xmlns="http://www.w3.org/2000/svg" width="220" height="48" viewBox="0 0 363.24067 78.18066">
  <defs>
    <style>
      .cls-1 {
        fill: red;
      }
    </style>
  </defs>
  <title>Morningstar | DBRS</title>
  <g>
    <rect class="cls-1" x="102.64459" y="16.88346" width="3.68262" height="40.50899"/>
    <polygon class="cls-1" points="153.392 16.883 165.15 16.883 165.15 20.26 161.152 20.26 161.152 57.392 157.45 57.392 157.45 20.26 153.392 20.26 153.392 16.883"/>
    <polygon class="cls-1" points="99.276 16.883 99.276 57.392 95.417 57.392 89.897 32.787 89.897 57.392 86.279 57.392 86.279 16.883 89.609 16.883 95.656 43.711 95.656 16.883 99.276 16.883"/>
    <polygon class="cls-1" points="19.145 16.883 19.145 57.392 15.525 57.392 15.525 22.668 11.056 57.392 8.04 57.392 3.645 22.668 3.645 57.392 0 57.392 0 16.883 6.165 16.883 9.695 41.303 13.025 16.883 19.145 16.883"/>
    <path class="cls-1" d="M188.45449,414.529a23.44354,23.44354,0,1,0-37.77776,0h4.87613a19.73784,19.73784,0,1,1,28.04321,0Z" transform="translate(-124.4276 -357.12598)"/>
    <path class="cls-1" d="M302.91832,414.51843H299.316l-.9514-9.12541h-5.39114l-.88007,9.12541h-3.67368l4.15112-40.509H298.19Zm-4.88872-12.78654L295.578,379.39875l-2.2591,22.33314Z" transform="translate(-124.4276 -357.12598)"/>
    <path class="cls-1" d="M258.89507,409.36956c0,1.828-1.07253,2.75787-2.30178,2.75787s-2.30177-.92987-2.30177-2.75787V378.77519c0-1.82436,1.07252-2.757,2.30177-2.757s2.30178.9326,2.30178,2.757l-.00711,1.46258v7.63692h3.7058v-5.88828l-.01076-1.70048c-.025-5.04909-1.99894-7.45412-6.118-7.45412-3.67,0-6.0574,2.60189-6.0574,6.59631l.00348,1.48758v25.35739l-.00348,1.63918c0,5.18791,2.01664,7.72138,6.14643,7.72138,4.119,0,6.03969-2.48714,6.03969-7.82829V393.06805H255.788v3.5471H258.888v11.41114Z" transform="translate(-124.4276 -357.12598)"/>
    <path class="cls-1" d="M274.085,408.39682V397.86575l-8.44474-6.30679V379.79062c0-4.62493,2.0845-6.99183,6.16065-6.99183,4.1369,0,6.01835,2.349,6.04681,7.5468l.01058,1.616v5.96907H274.085v-8.00724l-.01077-1.14824c0-1.82436-1.06177-2.757-2.27679-2.757-1.21866,0-2.28044.9326-2.28044,2.757v11.028l8.3413,6.29529v12.18083c0,4.76393-2.12007,7.31163-6.08219,7.31163-4.01231,0-6.10028-2.40522-6.12527-7.048l-.01058-1.60343v-7.92644H269.517v10.35648c0,1.828,1.06178,2.75787,2.28044,2.75787,1.215,0,2.27679-.92987,2.27679-2.75787Z" transform="translate(-124.4276 -357.12598)"/>
    <path class="cls-1" d="M208.46526,414.51843h-3.6914a12.27683,12.27683,0,0,1-.75-4.35783l-.03028-2.07374-.0135-1.04754v-7.90857a2.1399,2.1399,0,0,0-2.17609-2.41582h-2.63236v17.8035H195.556v-40.509h4.7185c5.29847,0,7.33828,1.93746,7.33828,7.12189V388.736c0,3.40734-.5692,4.83891-3.23531,5.82151.0374.0124.0748.02661.11129.03831,2.51833.73485,3.08315,1.69154,3.11161,4.88415l.01241,1.47152V408.347A17.63635,17.63635,0,0,0,208.46526,414.51843Zm-9.29362-37.32v16.04152h1.29969c2.38642,0,3.50876-1.09479,3.50876-3.42066v-8.255c0-3.32542-.76951-4.36585-3.23184-4.36585Z" transform="translate(-124.4276 -357.12598)"/>
    <path class="cls-1" d="M316.78977,414.51843H313.0982a12.30068,12.30068,0,0,1-.75182-4.35783l-.02846-2.07374-.01058-1.04754v-7.90857a2.14174,2.14174,0,0,0-2.18083-2.41582h-2.6296v17.8035H303.8803v-40.509h4.71759c5.30211,0,7.34029,1.93746,7.34029,7.12189V388.736c0,3.40734-.57012,4.83891-3.2355,5.82151.03576.0124.075.02661.11055.03831,2.51562.73485,3.08571,1.69154,3.11071,4.88415l.01424,1.47152V408.347A17.65491,17.65491,0,0,0,316.78977,414.51843Zm-9.29286-37.32v16.04152h1.30056c2.38735,0,3.50987-1.09479,3.50987-3.42066v-8.255c0-3.32542-.76969-4.36585-3.23549-4.36585Z" transform="translate(-124.4276 -357.12598)"/>
    <polygon class="cls-1" points="122.638 16.883 122.638 57.392 118.779 57.392 113.263 32.787 113.263 57.392 109.643 57.392 109.643 16.883 112.974 16.883 119.018 43.711 119.018 16.883 122.638 16.883"/>
    <rect class="cls-1" x="212.69154" width="0.75" height="78.18066"/>
    <path class="cls-1" d="M373.29616,376.89072h-13.7398v34.95681h14.33753c11.72822,0,18.36729-6.5939,18.36729-17.83873C392.26118,382.9069,384.59987,376.89072,373.29616,376.89072Zm-1.7829,31.75691c-3.8934,0-4.65092-.09319-4.7261-3.56609V380.08833h3.48519c8.79873,0,14.32752,4.7221,14.32752,13.99908C384.59987,402.42019,380.62186,408.64763,371.51326,408.64763Z" transform="translate(-124.4276 -357.12598)"/>
    <path class="cls-1" d="M418.07708,393.98193V393.817c1.29266-.43508,7.07244-1.997,7.07244-7.922,0-6.21485-5.64571-9.00426-13.71408-9.00426H398.56008v34.95681h14.49246c7.38231,0,13.221-3.15531,13.221-9.624C426.27351,395.17939,419.31314,394.26693,418.07708,393.98193Zm-12.32537-13.87387H409.784c5.55966,0,8.0978,3.04239,8.0978,6.20285,0,3.9843-3.55637,6.242-7.88656,6.242h-4.24357Zm4.81815,28.53471c-2.69565,0-4.81815-.09577-4.81815-2.8826v-9.7495h4.83416c5.6297,0,8.16527,2.50412,8.16527,6.18855C418.75114,406.05289,415.21078,408.64277,410.56986,408.64277Z" transform="translate(-124.4276 -357.12598)"/>
    <path class="cls-1" d="M477.528,391.00842c-4.98309-2.0416-8.8762-3.47032-8.8762-6.9012,0-2.3955,2.292-4.528,6.85918-4.528a17.95211,17.95211,0,0,1,9.09288,2.43208L486.0403,378.76a21.79658,21.79658,0,0,0-10.58592-2.553c-8.11868,0-12.40542,4.56488-12.40542,9.97333,0,6.284,5.14746,8.72412,10.00506,10.80232,4.03833,1.72373,8.35737,3.41858,8.35737,6.78057,0,2.69793-2.57759,5.347-8.47057,5.347a18.11233,18.11233,0,0,1-9.27212-2.50613l-1.451,3.29567c.30243.17952,4.31875,2.565,11.18051,2.565,7.86569,0,14.27007-3.51463,14.27007-10.792C487.66827,396.87682,483.90036,393.61517,477.528,391.00842Z" transform="translate(-124.4276 -357.12598)"/>
    <path class="cls-1" d="M458.216,386.36236c0-5.62456-4.14438-9.47164-14.12972-9.47164H431.84061v34.95681h7.22709V395.98866h1.54821c2.61446,0,3.3474,1.21289,4.53286,3.70644,1.24463,2.5753,5.8118,12.15243,5.8118,12.15243h8.06464l-8.57376-16.69244C450.99744,395.01474,458.216,393.58115,458.216,386.36236Zm-15.56244,6.40209H439.0677v-12.6441h3.58581c5.80579,0,8.84075,2.5207,8.84075,6.21028C451.49426,390.60479,448.1,392.76445,442.65351,392.76445Z" transform="translate(-124.4276 -357.12598)"/>
  </g>
</svg>
